<?xml version="1.0" encoding="UTF-8"?>
<svg id="Capa_2" data-name="Capa 2" xmlns="http://www.w3.org/2000/svg" viewBox="0 0 1440.19 1469.51">
  <g id="Capa_1-2" data-name="Capa 1">
    <path d="M1413.66,678.55c-188.68-87.51-292.21-293.47-249.87-497.11.68-3.28,1.01-6.51,1.01-9.65,0-32.69-35.08-56.23-66.3-40.63h0c-186.06,92.95-411.64,45.48-544.45-114.58-9.42-11.35-22.28-16.58-35-16.58-20.26,0-40.12,13.29-45.02,36.28-21.66,101.71-76.94,189.26-152.79,251.88-75.85,62.63-172.27,100.33-276.25,102.35h0c-38.24.74-58.77,45.28-34.48,74.84,67.71,82.43,101.73,183.22,101.73,284.12s-30.68,191.76-92.29,272.18c-6.57,8.58-9.53,18.23-9.53,27.65,0,23.93,19.09,46.38,46.54,45.98,2.19-.03,4.38-.05,6.57-.05,205.24,0,384.57,139.81,434.25,339.52,5.53,22.22,24.94,34.76,44.66,34.76,13.22,0,26.58-5.65,35.98-17.79,43.48-56.17,98.21-99.58,158.97-128.95,117.17-56.64,256.75-61.06,381.28-4.05,6.39,2.93,12.88,4.26,19.16,4.26,27.94,0,51.78-26.38,44.39-56.72h0c-49.22-202.09,47.26-411.44,232.86-505.31,16.79-8.5,25.13-24.68,25.13-40.84s-8.89-33.38-26.53-41.56ZM687.74,1210.61c-264.28,0-478.53-214.24-478.53-478.53s214.25-478.52,478.53-478.52,478.53,214.24,478.53,478.52-214.25,478.53-478.53,478.53Z"/>
    <path d="M1093.03,736.68c0,168.3-102.57,312.62-248.61,373.88,17.41-21.76,32.83-45.6,45.9-71.36,2.49-4.9,4.89-9.88,7.21-14.93,63.31-138.06,44.35-292.84-36.41-409.18-13.4-19.3-28.5-37.53-45.2-54.45-34.25-34.72-75.26-63.93-122.2-85.47-62.86-28.81-129.17-40.58-193.74-37.23,99.58-64.84,229.22-78.77,345.22-25.57,21.5,9.86,41.56,21.58,60.08,34.89,19.03,13.66,36.42,29.01,52.07,45.72l26.23-33.29c67.89,72.46,109.45,169.88,109.45,276.99Z"/>
    <path d="M846.84,1001.02c-13.77,30.05-31.18,57.28-51.47,81.41-79.65,23.09-167.66,18.77-248.96-18.52-9.57-4.38-18.84-9.13-27.82-14.22-20.45-11.61-39.38-25-56.69-39.87l-31.51,39.97c-90.34-74.32-147.94-186.99-147.94-313.11,0-67.51,16.51-131.16,45.72-187.14,28.98-18.48,60.45-32.67,93.32-42.2,79.67-23.09,167.68-18.77,248.98,18.51,42.87,19.67,80.02,46.73,110.62,78.98,16.5,17.4,31.1,36.31,43.66,56.39,61.85,98.84,74.33,225.9,22.09,339.8Z"/>
  </g>
</svg>